<svg width="427" height="124" viewBox="0 0 427 124" fill="none" xmlns="http://www.w3.org/2000/svg">
<path d="M251.787 66.3766C248.949 66.3766 246.234 66.3766 243.396 66.3766C243.396 58.6026 243.396 50.9521 243.396 43.4249C243.273 43.4249 243.149 43.3015 243.026 43.3015C240.928 46.6332 238.831 49.9649 236.733 53.2966C235.252 55.7645 233.648 58.2324 232.167 60.7004C231.55 61.6875 230.933 61.9343 229.823 62.0577C226.738 62.4279 224.763 61.3174 223.283 58.4793C220.445 53.1732 217.113 48.2373 213.534 43.1781C213.534 50.8287 213.534 58.4792 213.534 66.2532C210.696 66.2532 207.981 66.2532 205.143 66.2532C205.143 53.2966 205.143 40.34 205.143 27.1366C207.735 27.1366 210.449 27.0132 213.041 27.26C213.534 27.26 214.151 28.2472 214.521 28.9875C219.087 36.3913 223.653 43.7951 228.342 51.3223C228.712 50.8287 228.959 50.4585 229.206 49.9649C233.524 43.0547 237.843 36.1445 242.162 29.1109C243.026 27.6302 244.137 27.0132 245.864 27.1366C247.715 27.26 249.689 27.1366 251.664 27.1366C251.787 40.34 251.787 53.2966 251.787 66.3766Z" fill="white"/>
<path d="M75.6 38.9875C78.1 38.9875 80.6 38.9875 83.1 38.9875C83.3 38.9875 83.8 39.4875 83.8 39.6875C83.9 42.2875 83.8 44.8875 83.8 47.5875C81 47.5875 78.3 47.5875 75.7 47.5875C75.1 45.0875 75.1 45.0875 72.3 45.0875C63.3 45.0875 54.3 45.0875 45.3 44.9875C43.9 44.9875 43.5 45.3875 43.5 46.7875C43.6 50.3875 43.6 53.9875 43.5 57.6875C43.5 58.9875 43.9 59.3875 45.2 59.3875C55.8 59.2875 66.3 59.3875 76.9 59.3875C79 59.3875 79 59.3875 79 61.4875C79 67.0875 79.1 72.6875 79 78.1875C79 80.3875 78.9 80.3875 76.7 80.3875C66.4 80.3875 56.1 80.3875 45.8 80.3875C44.5 80.3875 43.6 80.4875 43.8 82.0875C43.8 82.3875 43.2 82.9875 42.9 82.9875C40.7 83.0875 38.6 83.0875 36.4 82.9875C36.1 82.9875 35.5 82.4875 35.4 82.1875C35.3 79.6875 35.4 77.0875 35.4 74.3875C38.2 74.3875 40.9 74.3875 43.6 74.3875C43.7 74.4875 43.8 74.5875 43.8 74.5875C44.1 76.9875 44.1 76.9875 46.5 76.9875C55.7 76.9875 64.9 76.9875 74.1 76.9875C75.4 76.9875 75.8 76.6875 75.8 75.2875C75.7 71.5875 75.8 67.9875 75.8 64.2875C75.8 63.7875 75.7 63.2875 75.7 62.5875C75 62.5875 74.3 62.5875 73.7 62.5875C63.3 62.5875 53 62.5875 42.6 62.5875C40.4 62.5875 40.4 62.5875 40.4 60.4875C40.4 54.7875 40.4 49.0875 40.4 43.4875C40.4 42.0875 40.8 41.6875 42.2 41.6875C52.3 41.6875 62.4 41.6875 72.5 41.6875C75.2 41.8875 75.2 41.8875 75.6 38.9875Z" fill="#108CFA"/>
<path d="M315.583 39.9698C312.745 39.9698 310.153 39.9698 307.315 39.9698C307.315 38.9826 307.315 37.9954 307.315 37.0083C307.315 35.6509 306.698 35.034 305.464 35.034C300.282 35.034 295.099 35.034 289.793 35.034C288.312 35.034 287.695 35.7743 287.695 37.2551C287.695 43.6717 287.695 50.0883 287.695 56.3815C287.695 57.9856 288.436 58.6026 289.917 58.6026C294.976 58.6026 300.035 58.6026 305.218 58.6026C306.575 58.6026 307.315 57.9856 307.192 56.6283C307.192 55.2709 307.192 53.9135 307.192 52.4328C303.49 52.4328 300.035 52.4328 296.457 52.4328C296.457 49.7181 296.457 47.3736 296.457 44.6588C302.75 44.6588 308.92 44.6588 315.46 44.6588C315.46 46.88 315.46 49.1011 315.46 51.1988C315.46 53.1732 315.46 55.1475 315.46 57.1219C315.46 62.5513 312.128 66.1298 306.575 66.3766C300.405 66.5 294.235 66.5 288.189 66.3766C282.636 66.2532 279.181 62.5513 279.181 56.9985C279.181 50.2117 279.058 43.4249 279.181 36.7615C279.181 30.9619 282.883 27.26 288.806 27.1366C294.482 27.0132 300.282 27.0132 305.958 27.1366C312.375 27.26 315.583 30.5917 315.583 37.1317C315.583 38.1188 315.583 38.9826 315.583 39.9698Z" fill="white"/>
<path d="M154.798 39.723C152.083 39.723 149.492 39.723 146.654 39.723C146.654 38.7358 146.654 37.7487 146.654 36.7615C146.777 35.5275 146.16 35.034 145.049 35.034C140.237 35.034 135.548 35.034 130.735 35.034C129.255 35.034 128.761 35.6509 128.761 37.1317C128.761 38.3656 128.885 39.4762 128.761 40.7102C128.638 42.4377 129.378 43.1781 131.106 43.1781C135.918 43.1781 140.607 43.0547 145.42 43.1781C147.394 43.3015 149.492 43.7951 151.219 44.6588C153.687 45.8928 155.045 48.3607 155.168 51.1988C155.168 53.2966 155.168 55.3943 155.168 57.492C155.168 62.6747 151.96 66.2532 146.777 66.3766C140.731 66.6234 134.684 66.6234 128.761 66.3766C123.208 66.1298 120.247 62.6747 120.247 57.1219C120.247 56.1347 120.247 55.1475 120.247 54.037C123.085 54.037 125.676 54.037 128.514 54.037C128.514 55.0241 128.638 55.8879 128.638 56.8751C128.638 58.109 129.131 58.6026 130.242 58.6026C135.178 58.6026 140.114 58.6026 145.173 58.6026C146.283 58.6026 146.9 58.109 146.9 56.8751C146.777 49.4713 147.888 50.8286 141.348 50.7053C137.646 50.7053 134.067 50.7053 130.365 50.7053C124.936 50.8286 119.877 47.497 120.494 40.8336C120.617 39.4762 120.494 38.1189 120.494 36.7615C120.494 30.8385 123.702 27.26 129.625 27.1366C135.054 27.0132 140.484 27.0132 146.037 27.1366C152.823 27.5068 156.032 32.0724 154.798 39.723Z" fill="white"/>
<path d="M324.591 27.26C325.331 27.26 325.948 27.1366 326.565 27.1366C333.846 27.1366 341.126 27.1366 348.283 27.1366C349.394 27.1366 350.628 27.26 351.738 27.3834C355.934 28.0004 358.895 30.8385 359.265 35.1573C359.512 38.2422 359.512 41.3271 359.265 44.412C358.895 48.3607 356.551 50.7053 352.479 51.9392C355.193 56.7517 357.785 61.3173 360.623 66.3766C357.414 66.3766 354.453 66.3766 351.491 66.3766C351.121 66.3766 350.628 65.6362 350.257 65.1426C348.16 61.4407 345.939 57.6154 343.841 53.7902C343.224 52.5562 342.483 52.3094 341.249 52.3094C338.535 52.4328 335.82 52.3094 332.858 52.3094C332.858 56.9985 332.858 61.5641 332.858 66.2532C329.897 66.2532 327.182 66.2532 324.344 66.2532C324.591 53.42 324.591 40.4634 324.591 27.26ZM333.105 44.5355C338.658 44.5355 343.964 44.5354 349.394 44.412C350.011 44.412 350.874 43.3015 350.998 42.5611C351.245 40.957 351.121 39.3528 351.121 37.7487C351.121 35.4041 350.751 35.034 348.406 35.034C343.841 35.034 339.275 35.034 334.586 35.034C334.092 35.034 333.599 35.1573 333.105 35.1573C333.105 38.489 333.105 41.4505 333.105 44.5355Z" fill="white"/>
<path d="M386.659 27.1366C388.263 27.1366 389.744 27.1366 391.225 27.1366C398.258 27.26 405.292 27.0132 412.202 27.5068C418.989 28.0004 422.691 32.4426 422.691 39.3528C422.691 44.1653 422.444 48.8543 422.691 53.6668C423.061 61.3173 418.372 66.2532 410.228 66.5C402.701 66.7468 395.05 66.5 387.523 66.5C387.276 66.5 386.906 66.3766 386.536 66.3766C386.659 53.42 386.659 40.4634 386.659 27.1366ZM395.174 35.1573C395.174 43.0547 395.174 50.8287 395.174 58.6026C400.356 58.6026 405.292 58.726 410.351 58.4792C413.313 58.3559 414.547 56.7517 414.547 53.6668C414.547 49.1011 414.547 44.6588 414.547 40.0932C414.547 37.0083 413.189 35.2807 410.228 35.2807C405.169 35.0339 400.233 35.1573 395.174 35.1573Z" fill="white"/>
<path d="M164.052 66.3766C164.052 53.2966 164.052 40.34 164.052 27.3834C174.911 27.3834 185.647 27.3834 196.629 27.3834C196.629 29.8513 196.629 32.4426 196.629 35.1573C188.608 35.1573 180.587 35.1573 172.32 35.1573C172.32 37.6253 172.32 39.8464 172.32 42.0675C172.32 43.4249 173.307 43.0547 174.047 43.0547C179.6 43.0547 185.153 43.0547 190.829 43.0547C191.446 43.0547 192.187 43.0547 192.927 43.0547C192.927 45.646 192.927 48.114 192.927 50.8287C186.14 50.8287 179.354 50.8287 172.443 50.8287C172.443 53.5434 172.443 56.1347 172.443 58.726C180.464 58.726 188.485 58.726 196.629 58.726C196.629 61.3173 196.629 63.7853 196.629 66.3766C185.894 66.3766 175.035 66.3766 164.052 66.3766Z" fill="white"/>
<path d="M22.7 61.9875C20 61.9875 17.6 61.9875 15 61.9875C15 61.1875 14.9 60.5875 14.9 59.6875C17.5 59.6875 20 59.6875 22.7 59.6875C22.7 58.8875 22.7 58.3875 22.7 57.8875C22.7 47.4875 22.7 37.1875 22.7 26.7875C22.7 25.6875 22.9 24.9875 24.2 24.9875C34.6 24.9875 45 24.9875 55.4 24.9875C55.6 24.9875 55.9 25.0875 56.2 25.0875C56.2 26.1875 56.2 27.1875 56.2 28.3875C46.1 28.3875 36.1 28.3875 26 28.3875C26 38.7875 26 48.9875 26 59.4875C27.5 59.4875 29.1 59.4875 30.7 59.4875C30.7 60.3875 30.7 61.1875 30.7 61.9875C29.1 61.9875 27.6 61.9875 26 61.9875C26 72.4875 26 82.8875 26 93.4875C36 93.4875 46 93.4875 56.1 93.4875C56.1 94.5875 56.1 95.5875 56.1 96.7875C55.6 96.7875 55.2 96.8875 54.7 96.8875C44.6 96.8875 34.5 96.8875 24.4 96.8875C22.9 96.8875 22.6 96.3875 22.6 94.9875C22.6 85.2875 22.6 75.6875 22.6 65.9875C22.7 64.7875 22.7 63.4875 22.7 61.9875Z" fill="white"/>
<path d="M93 62.0875C91.3 62.0875 89.8 62.0875 88.2 62.0875C88.2 61.1875 88.2 60.5875 88.2 59.6875C89.8 59.6875 91.3 59.6875 93 59.6875C93 49.2875 93 38.9875 93 28.4875C83 28.4875 73 28.4875 62.9 28.4875C62.9 27.2875 62.9 26.2875 62.9 25.0875C63.4 25.0875 63.9 24.9875 64.4 24.9875C74.4 24.9875 84.4 24.9875 94.4 24.8875C95.8 24.8875 96.3 25.2875 96.3 26.7875C96.2 37.0875 96.3 47.3875 96.3 57.6875C96.3 58.1875 96.3 58.7875 96.3 59.4875C98.7 59.4875 101 59.4875 103.4 59.4875C103.4 60.2875 103.4 60.9875 103.4 61.8875C101.1 61.8875 98.8 61.8875 96.3 61.8875C96.3 62.7875 96.3 63.5875 96.3 64.2875C96.3 74.4875 96.3 84.6875 96.3 94.8875C96.3 95.9875 96.2 96.6875 94.8 96.6875C84.4 96.6875 74 96.6875 63.6 96.6875C63.4 96.6875 63.2 96.6875 62.9 96.5875C62.9 95.5875 62.9 94.5875 62.9 93.3875C72.9 93.3875 82.9 93.3875 93 93.3875C93 82.9875 93 72.5875 93 62.0875Z" fill="white"/>
<path d="M270.297 27.26C270.297 40.4634 270.297 53.42 270.297 66.5C267.458 66.5 264.744 66.5 262.029 66.5C262.029 65.883 261.906 65.3894 261.906 64.7724C261.906 52.9264 261.906 41.2038 261.906 29.3577C261.906 27.6302 262.399 27.0132 264.127 27.1366C265.978 27.26 268.075 27.26 270.297 27.26Z" fill="white"/>
<path d="M377.404 66.3766C374.566 66.3766 371.975 66.3766 369.137 66.3766C369.137 65.6362 369.013 65.0192 369.013 64.2789C369.013 52.5562 369.013 40.957 369.013 29.2343C369.013 27.6302 369.384 26.8898 371.111 27.0132C373.086 27.1366 375.183 27.0132 377.404 27.0132C377.404 40.34 377.404 53.2966 377.404 66.3766Z" fill="white"/>
<path d="M105.3 64.7875C105.3 62.0875 105.3 59.3875 105.3 56.5875C107.9 56.5875 110.5 56.5875 113.2 56.5875C113.2 59.2875 113.2 61.8875 113.2 64.7875C110.6 64.7875 108.1 64.7875 105.3 64.7875Z" fill="#108CFA"/>
<path d="M55.5778 112.188C55.5778 109.488 55.5778 106.788 55.5778 103.988C58.1778 103.988 60.7778 103.988 63.4778 103.988C63.4778 106.688 63.4778 109.288 63.4778 112.188C60.8778 112.188 58.3778 112.188 55.5778 112.188Z" fill="#108CFA"/>
<path d="M5 64.6875C5 61.9875 5 59.2875 5 56.4875C7.6 56.4875 10.2 56.4875 12.9 56.4875C12.9 59.1875 12.9 61.7875 12.9 64.6875C10.3 64.6875 7.8 64.6875 5 64.6875Z" fill="#108CFA"/>
<path d="M55.8 19.2C55.8 16.5 55.8 13.8 55.8 11C58.4 11 61 11 63.7 11C63.7 13.7 63.7 16.3 63.7 19.2C61.1 19.2 58.6 19.2 55.8 19.2Z" fill="#108CFA"/>
<path d="M58.5 82.7875C59.2 82.7875 59.8 82.7875 60.6 82.7875C60.6 89.0875 60.6 95.3875 60.6 101.788C60 101.788 59.3 101.788 58.5 101.788C58.5 95.4875 58.5 89.1875 58.5 82.7875Z" fill="white"/>
<path d="M58.5 21.3875C59.2 21.3875 59.8 21.3875 60.6 21.3875C60.6 27.4875 60.6 33.4875 60.6 39.5875C59.9 39.5875 59.2 39.5875 58.5 39.5875C58.5 33.5875 58.5 27.5875 58.5 21.3875Z" fill="white"/>
<path d="M229.206 80.8139C229.823 81.3075 230.563 81.5543 231.057 82.1713C233.031 84.886 235.005 87.7241 237.35 90.4389C237.35 87.7241 237.35 85.0094 237.35 82.4181C237.35 81.4309 237.597 80.814 238.831 81.3075C238.831 85.503 238.831 89.6985 238.831 94.3875C237.967 93.7705 237.103 93.5238 236.733 92.9068C235.005 90.4389 233.278 87.9709 231.55 85.3796C231.303 85.0094 230.933 84.6392 230.316 83.8988C230.316 86.9837 230.316 89.6985 230.316 92.2898C230.316 92.7834 229.823 93.4004 229.576 93.8939C229.329 93.4004 228.835 92.7834 228.712 92.2898C228.589 88.5879 228.712 85.0094 228.712 81.3075C228.959 81.1842 229.082 81.0607 229.206 80.8139Z" fill="white"/>
<path d="M256.353 87.4774C256.476 82.4181 259.314 79.9502 263.88 81.0607H264.003C266.224 81.8011 267.458 83.4052 267.582 85.7498C267.829 88.4645 268.075 91.426 265.237 93.277C263.386 94.5109 260.055 94.3875 258.327 93.0302C256.6 91.6728 256.353 89.6985 256.353 87.4774ZM266.101 87.6007C266.101 84.7626 265.484 83.2819 263.88 82.6649C261.659 81.8011 259.068 82.6649 258.327 84.6392C257.093 87.6007 258.08 91.5494 260.301 92.4132C260.672 92.5366 261.042 92.66 261.412 92.66C264.497 93.0302 266.101 91.3026 266.101 87.6007Z" fill="white"/>
<path d="M320.766 87.6007C320.766 92.5366 318.174 94.7577 313.609 94.1407C313.238 94.1407 312.868 94.0173 312.498 93.8939C310.4 93.0302 309.413 91.3026 309.29 89.0815C309.166 86.3668 308.92 83.5287 311.758 81.8011C313.855 80.5672 316.2 80.5672 318.298 81.8011C320.519 83.0351 320.889 85.2562 320.766 87.6007ZM311.017 87.4773C311.017 91.3026 312.498 93.0302 315.583 92.66C317.557 92.4132 318.915 91.0558 319.038 88.9581C319.408 85.503 318.668 83.4052 316.694 82.6649C313.362 81.4309 311.017 83.2819 311.017 87.4773Z" fill="white"/>
<path d="M209.092 93.7705C209.092 92.043 209.092 90.192 209.092 88.3411C206.871 88.3411 204.65 88.3411 202.305 88.3411C202.305 89.9453 202.305 91.426 202.305 92.9068C202.305 94.1407 201.688 94.2641 200.701 93.7705C200.701 89.5751 200.701 85.503 200.701 81.3075C202.305 80.9374 202.305 80.9373 202.305 83.0351C202.305 84.1456 202.305 85.2562 202.305 86.4902C204.526 86.4902 206.747 86.4902 209.215 86.4902C209.215 85.1328 209.215 83.652 209.215 82.1713C209.215 80.9373 209.709 80.814 210.943 81.3075C210.943 85.1328 210.943 89.0815 210.943 92.9068C210.943 93.277 210.203 93.7705 209.832 94.1407C209.462 94.0173 209.215 93.8939 209.092 93.7705Z" fill="white"/>
<path d="M348.406 85.0095C347.913 84.6393 347.172 84.5159 346.926 84.0223C345.938 82.4181 344.458 82.1713 342.854 82.2947C341.249 82.4181 340.015 83.2819 339.645 85.0095C339.398 86.3668 339.275 87.8476 339.398 89.2049C339.769 92.2898 343.347 93.894 345.815 91.9196C346.555 91.3026 346.802 90.1921 347.419 89.2049C345.815 88.8347 344.705 88.5879 343.594 88.3411C343.594 88.3411 343.594 87.8476 343.594 87.4774C345.198 87.4774 346.802 87.4774 348.283 87.4774C349.27 92.4132 345.815 95.4981 340.879 93.894C340.879 93.894 340.756 93.894 340.756 93.7706C338.535 92.9068 337.671 91.1792 337.547 88.9581C337.424 86.2434 337.054 83.1585 340.015 81.5543C342.237 80.3204 344.581 80.4438 346.679 81.8012C347.543 82.4181 347.913 83.4053 348.53 84.2691C348.777 84.6393 348.53 84.8861 348.406 85.0095Z" fill="white"/>
<path d="M421.704 84.6392C421.21 84.3924 420.717 84.1457 420.346 83.6521C419.236 82.2947 417.261 81.6777 415.657 82.5415C415.04 82.9117 414.423 83.6521 414.423 84.3925C414.423 84.8861 415.164 85.7498 415.657 85.9966C416.891 86.4902 418.249 86.737 419.606 87.1072C421.334 87.6007 422.444 88.5879 422.444 90.5623C422.444 92.4132 421.334 93.6472 419.606 93.894C418.002 94.1407 416.274 94.0174 414.67 93.6472C413.313 93.277 412.449 92.1664 412.572 90.0687C413.313 90.5622 413.93 90.6857 414.3 91.1793C415.534 92.7834 417.878 93.5238 419.606 92.4132C420.223 92.043 420.84 91.0559 420.84 90.4389C420.84 89.9453 419.976 89.0815 419.359 88.8347C418.125 88.3411 416.891 88.2177 415.534 87.8475C413.436 87.2306 412.696 86.12 412.819 84.3925C412.943 82.5415 414.177 81.5543 415.904 81.1842C419.112 80.3204 421.457 81.4309 421.704 84.6392Z" fill="white"/>
<path d="M388.634 82.5415C388.634 84.0223 388.634 85.2562 388.634 86.6136C390.608 86.6136 392.459 86.6136 394.31 86.6136C394.433 86.8604 394.557 86.9837 394.68 87.2305C394.31 87.4773 393.94 88.0943 393.569 88.0943C391.965 88.2177 390.361 88.0943 388.634 88.0943C388.634 89.5751 388.634 90.9324 388.634 92.5366C390.978 92.5366 393.199 92.5366 395.297 92.5366C395.42 92.7834 395.544 92.9067 395.667 93.1535C395.297 93.5237 394.803 94.0173 394.433 94.0173C391.965 94.1407 389.621 94.0173 387.029 94.0173C387.029 89.6985 387.029 85.503 387.029 81.0607C389.497 81.0607 391.965 81.0607 394.433 81.0607C394.803 81.0607 395.05 81.5543 395.42 81.8011C395.05 82.0479 394.68 82.4181 394.31 82.4181C392.335 82.5415 390.484 82.5415 388.634 82.5415Z" fill="white"/>
<path d="M155.168 82.5415C153.07 82.5415 150.972 82.5415 148.751 82.5415C148.751 83.8989 148.751 85.1328 148.751 86.6136C150.726 86.6136 152.577 86.6136 154.551 86.6136C154.674 86.8604 154.798 86.9837 154.921 87.2305C154.551 87.4773 154.181 88.0943 153.811 88.0943C152.206 88.2177 150.602 88.0943 148.875 88.0943C148.875 89.5751 148.875 90.9324 148.875 92.5366C150.726 92.5366 152.577 92.5366 154.304 92.5366C154.798 92.5366 155.168 92.9067 155.538 93.1535C155.168 93.4003 154.674 93.8939 154.304 94.0173C151.96 94.1407 149.615 94.0173 147.024 94.0173C147.024 91.7962 147.024 89.6984 147.024 87.6007C147.024 85.503 147.024 83.4053 147.024 81.0607C149.738 81.0607 152.206 81.0607 154.798 81.0607C155.168 81.0607 155.415 81.6777 155.785 82.0479C155.415 82.2947 155.291 82.4181 155.168 82.5415Z" fill="white"/>
<path d="M183.179 89.4517C182.932 92.5366 181.451 93.894 178.983 94.1408C175.775 94.5109 173.307 93.4004 172.814 90.9324C172.443 88.8347 172.443 86.4902 172.69 84.3925C173.06 82.2947 174.788 81.3075 176.886 80.9373C178.983 80.6906 180.834 80.9373 182.315 82.6649C182.809 83.2819 182.932 84.0223 183.302 84.7626C183.179 84.886 182.932 85.1328 182.809 85.2562C182.315 84.886 181.698 84.6392 181.451 84.1457C180.464 82.4181 178.983 82.1713 177.379 82.4181C175.652 82.6649 174.541 83.6521 174.294 85.3796C174.171 86.6136 174.171 87.8475 174.171 89.0815C174.294 91.0558 175.405 92.2898 177.132 92.5366C179.107 92.9068 180.464 92.1664 181.451 90.5623C181.698 90.1921 182.438 89.9453 183.179 89.4517Z" fill="white"/>
<path d="M286.832 92.5366C289.176 92.5366 291.151 92.5366 293.125 92.5366C293.248 92.7834 293.372 92.9067 293.372 93.1535C293.001 93.4003 292.631 94.0173 292.138 94.0173C289.917 94.1407 287.572 94.0173 285.104 94.0173C285.104 89.6985 285.104 85.6264 285.104 81.4309C286.585 81.0607 286.708 81.0607 286.708 82.5415C286.832 85.7498 286.832 88.9581 286.832 92.5366Z" fill="white"/>
<path d="M130.119 81.1841C130.119 82.1713 130.118 82.1713 126.046 82.6649C126.046 85.6264 126.046 88.5879 126.046 91.426C126.046 91.9196 126.17 92.4132 126.046 92.9068C125.923 93.277 125.553 93.5237 125.306 93.8939C125.059 93.5237 124.566 93.277 124.566 92.9068C124.442 90.0687 124.566 87.3539 124.566 84.5158C124.566 83.8988 124.566 83.2819 124.566 82.9117C123.208 81.8011 121.111 83.5287 120 81.0607C123.578 81.1841 126.787 81.1841 130.119 81.1841Z" fill="white"/>
<path d="M368.52 81.3075C368.52 85.1328 368.52 88.9581 368.52 92.7834C368.52 93.1536 368.026 93.5237 367.78 93.8939C367.533 93.5237 367.039 93.1536 367.039 92.66C367.039 89.0815 366.916 85.6264 367.039 82.0479C367.039 81.5543 367.656 81.1841 367.903 80.8139C368.15 81.0607 368.273 81.1842 368.52 81.3075Z" fill="white"/>
<path d="M52.738 63.5824C52.738 62.6755 52.738 61.8385 52.738 60.8967C51.9706 60.8967 51.2382 60.8967 50.5406 60.8967C50.3662 60.8967 50.1918 60.827 50.0523 60.7224C49.9826 60.6875 50.0174 60.4084 50.0523 60.4084C50.1918 60.3387 50.3662 60.3038 50.5406 60.3038C51.2731 60.3038 51.9706 60.3038 52.738 60.3038C52.738 59.3621 52.738 58.525 52.738 57.6182C52.0055 57.6182 51.3428 57.6531 50.6801 57.5833C50.4709 57.5833 50.2616 57.3392 50.0523 57.1996C50.2616 57.1299 50.4709 56.9555 50.715 56.9555C51.3777 56.9206 52.0055 56.9555 52.7031 56.9555C53.017 56.0835 52.3543 54.8628 53.296 54.3047C54.0285 53.8862 55.0051 53.8513 56.0165 53.6072C56.0165 53.084 56.0165 52.4213 56.0165 51.7586C56.0165 51.5493 56.0863 51.3401 56.1909 51.1657C56.2258 51.1308 56.5397 51.1308 56.5746 51.1657C56.6443 51.3401 56.7141 51.5493 56.6792 51.7586C56.6792 52.4213 56.6095 53.084 56.6095 53.7815C57.5163 53.7815 58.2836 53.7815 59.1556 53.7815C59.1556 53.084 59.1556 52.4213 59.1556 51.7586C59.1556 51.5493 59.1905 51.3401 59.2602 51.1657C59.2951 51.1308 59.609 51.1308 59.6439 51.1657C59.7136 51.3401 59.7485 51.5493 59.7485 51.7586C59.7485 52.3864 59.7485 53.0491 59.7485 53.7467C60.6554 53.7467 61.4576 53.7467 62.3644 53.7467C62.3644 53.084 62.3644 52.3864 62.3644 51.7237C62.3644 51.4796 62.469 51.2354 62.5388 51.0262C62.5737 50.9913 62.8876 50.9913 62.9224 51.0262C62.9922 51.2703 63.0271 51.5145 63.062 51.7586C63.062 51.8284 62.9922 51.8981 62.9922 51.9679C62.7481 53.5374 62.9573 53.8164 64.5268 53.8513C65.8871 53.8513 66.3405 54.3047 66.3405 55.6301C66.3405 57.095 65.9917 56.9555 67.7008 56.9904C67.9798 56.9904 68.2588 56.8857 68.5379 56.8857C68.7471 56.8857 68.9564 56.9206 69.1308 57.0252C69.2006 57.0601 69.2006 57.4089 69.1308 57.4787C68.9913 57.5833 68.7471 57.6879 68.5727 57.6879C67.8752 57.6531 67.1427 57.6182 66.3754 57.5484C66.3754 58.525 66.3754 59.3272 66.3754 60.3038C67.1427 60.2341 67.8752 60.1643 68.6076 60.0945C68.782 60.0945 69.061 60.1643 69.1657 60.2689C69.2703 60.3736 69.2703 60.6875 69.1657 60.7921C69.061 60.9316 68.782 61.0014 68.6076 61.0014C67.9101 60.9665 67.1776 60.8619 66.3405 60.7921C66.3405 61.7338 66.3057 62.5012 66.3754 63.3034C66.3754 63.4429 66.6544 63.6173 66.8288 63.6521C67.3869 63.687 67.9449 63.6173 68.503 63.6173C68.7123 63.6173 68.9564 63.687 69.1657 63.7568C69.2006 63.7916 69.2006 64.1056 69.1657 64.1404C68.9564 64.2102 68.7471 64.2799 68.503 64.2799C67.9101 64.2799 67.352 64.2102 66.7591 64.2102C66.6196 64.2102 66.4103 64.4543 66.4103 64.5938C66.3405 64.9426 66.3754 65.3263 66.3754 65.6751C66.3754 66.7214 65.8174 67.2795 64.7361 67.3144C64.2129 67.3144 63.6898 67.3144 63.062 67.3144C63.062 68.0817 63.0968 68.7444 63.062 69.4071C63.062 69.5815 62.8527 69.7559 62.748 69.9302C62.6434 69.7559 62.5039 69.6163 62.469 69.442C62.4341 68.7793 62.469 68.0817 62.469 67.3841C61.5622 67.3841 60.7251 67.3841 59.7834 67.3841C59.7834 68.0468 59.7834 68.6746 59.7834 69.3024C59.7834 69.5117 59.7485 69.721 59.6788 69.9302C59.6788 69.9651 59.3649 69.9651 59.3649 69.9302C59.2951 69.721 59.2253 69.4768 59.2253 69.2676C59.1905 68.6398 59.2253 68.0119 59.2253 67.3493C58.3185 67.3493 57.5512 67.3493 56.6443 67.3493C56.6443 68.0468 56.6792 68.7095 56.6443 69.3722C56.6443 69.5815 56.4699 69.7907 56.3653 70C56.2607 69.9651 56.1909 69.9302 56.0863 69.8954C56.0863 69.0583 56.0863 68.2212 56.0863 67.2795C55.4585 67.2795 54.9004 67.2795 54.3424 67.2795C53.4006 67.2446 52.9123 66.7563 52.8775 65.8146C52.8426 65.3263 52.8775 64.8031 52.8775 64.2451C52.0404 64.2451 51.3079 64.2451 50.5755 64.2451C50.4011 64.2451 50.1918 64.1753 50.0523 64.0707C49.9826 64.0009 49.9826 63.7219 50.0523 63.687C50.1918 63.5824 50.3662 63.5475 50.5406 63.5475C51.2033 63.5475 51.9358 63.5824 52.738 63.5824ZM54.3424 60.548C54.3424 61.9431 54.3424 63.3382 54.3424 64.6985C54.3424 65.4658 54.5516 65.71 55.319 65.7448C58.1441 65.7448 60.9693 65.7448 63.7944 65.7448C64.4571 65.7448 64.7012 65.4309 64.7012 64.8031C64.7012 61.978 64.7012 59.1528 64.7012 56.3277C64.7012 55.665 64.4222 55.386 63.7944 55.386C60.9344 55.386 58.1092 55.386 55.2492 55.386C54.6214 55.386 54.3075 55.665 54.3424 56.3277C54.3772 57.7228 54.3424 59.1528 54.3424 60.548Z" fill="white"/>
<path d="M54.3424 60.548C54.3424 59.1528 54.3424 57.7228 54.3424 56.3277C54.3424 55.665 54.6214 55.386 55.2492 55.386C58.1092 55.386 60.9344 55.386 63.7944 55.386C64.4571 55.386 64.7013 55.665 64.7013 56.3277C64.7013 59.1528 64.7013 61.978 64.7013 64.8031C64.7013 65.4309 64.4222 65.7449 63.7944 65.7449C60.9693 65.7449 58.1441 65.7449 55.319 65.7449C54.5516 65.7449 54.3424 65.5007 54.3424 64.6985C54.3424 63.3382 54.3424 61.9431 54.3424 60.548ZM63.4108 56.7114C60.7949 56.7114 58.2139 56.7114 55.6678 56.7114C55.6678 59.3272 55.6678 61.8733 55.6678 64.4195C58.2836 64.4195 60.8298 64.4195 63.4108 64.4195C63.4108 61.8036 63.4108 59.2924 63.4108 56.7114Z" fill="black"/>
<path d="M63.4108 56.7114C63.4108 59.2924 63.4108 61.8385 63.4108 64.4195C60.8298 64.4195 58.2837 64.4195 55.6678 64.4195C55.6678 61.8734 55.6678 59.3272 55.6678 56.7114C58.2139 56.7114 60.7949 56.7114 63.4108 56.7114Z" fill="white"/>
</svg>
